<?xml version="1.0" encoding="UTF-8"?>
<svg id="Livello_2" data-name="Livello 2" xmlns="http://www.w3.org/2000/svg" viewBox="0 0 564.11 800.8"><metadata><?xpacket begin="" id="W5M0MpCehiHzreSzNTczkc9d"?><x:xmpmeta xmlns:x="adobe:ns:meta/" x:xmptk="XMP Core 6.0.0"><rdf:RDF xmlns:rdf="http://www.w3.org/1999/02/22-rdf-syntax-ns#"><rdf:Description rdf:about="" xmlns:xmp="http://ns.adobe.com/xap/1.0/" xmlns:xmpMM="http://ns.adobe.com/xap/1.0/mm/" xmlns:dc="http://purl.org/dc/elements/1.1/" xmlns:dcterms="http://purl.org/dc/terms/" xmpMM:DocumentID="xmp.did:cb9f5498-bb58-4572-8043-8c369e6bfb9b" xmpMM:InstanceID="xmp.iid:cb9f5498-bb58-4572-8043-8c369e6bfb9b" dcterms:provenance="https://cai-manifests.adobe.com/manifests/urn-c2pa-aa4dcf08-8dfa-445a-83e0-4e478b31e441-adobe"> </rdf:Description></rdf:RDF></x:xmpmeta>
<?xpacket end="w"?></metadata>
  <defs>
    <style>
      .cls-1 {
        fill: #7bb636;
      }

      .cls-2 {
        fill: #0a050d;
      }

      .cls-3 {
        fill: #14171d;
      }

      .cls-4 {
        fill: #130c18;
      }
    </style>
  </defs>
  <g id="Livello_1-2" data-name="Livello 1">
    <g id="Oggetto_generativo_-45_0_" data-name="Oggetto generativo (-45, 0)">
      <path class="cls-4" d="M238.37,379.83l-1.85-.83-.03,20.51c.11.37.45.57.84.44.46-1.69-.8-4.42,1.06-6.02-.04,2.37.97,4.87-.82,7.98l324.19.07c-2.5,2.57-3.08,3.66-4.59,6.07-1.05-1.55-.86-3.14-.65-4.96h-59.03c.56,1.74,2.12,1.21,2.25,1.92-1.01,0-1.89.14-2.91-.4-.28-.56-.61-.48-1-.67-1.15-.56-3.02.15-2.7.72.72,1.16.44,2.01.01,2.53-2.25,2.74-.91-3.96-2.25-4.25-.58-.13-1.73.45-2.52.9-1.2-1.99-2.77.32-.52.77l-21.63.26-264.59-.14-40.2-.45-60.71.08-95.16.67-.02,191.67,166.52.13.49,177.86c.61.5.71,1.22.36,1.77s-1.03.79-1.66.56c-.49-.05-1.81-1.04-.38-2.38-.84-.67-1.57-.17-2.43.28l-.31-173.87-166.48-.04-.12-200.08,163.81-.98-81.01-96.89L0,201.11c3.95,2.72,3.96-5.87,6.35-1.41-1.1,1-1.26,1.23-.01,2.73l157.07,189.02.57-194.97,10.89.08,315.7.11c.93-3.24-.04-5.16-.04-7.9l-.04-184.79c2.19,0,5.44-2.63,7.4.09-.7.02-1.86-.23-2.49.33-.39.35-.53.83-.63,1.59-.32-.13-1.96-.11-2.29.31l.03,188.81c.4.07.93-.36.93-.63l.17-185.54c-.12,3.09,1.62,6.42,1.63,9.58l.29,111.09c-1.92,1.26-1.14,3.16,0,4.25l-.13,55.05c-.93,2.78-.54,5.35-.03,8.05l61.75-.53-.17-191.85-11.49-.56c.33-1.41,1.32-1.83,2.99-2.08l10.65-1.58c.71-.35,1.99-.62,1.93.4l-.14,2.45-.03,197.74-322.5-.08-.03,178.98ZM234.48,400.63l-.03-199.82-66.25-.05-.41,199.95,66.69-.07Z"/>
      <path class="cls-3" d="M168.47,774.92c.86-.44,1.6-.94,2.43-.28-1.42,1.34-.11,2.34.38,2.38.62.23,1.31,0,1.66-.56s.25-1.27-.36-1.77l.13,17.63,20.26-23.92,29.84-36.24,114.97-140.79,39.72-48.38,32.36-39.67,33.69-41.27,35.07-42.99c3.48-4.27,7.36-7.53,9.75-12.07.65.1,1.38-.7,2.26-1.39.37-.29.37-1.85-1.07-1.1l-1.69.12c-2.26-.45-.68-2.76.52-.77.79-.45,1.94-1.02,2.52-.9,1.34.29,0,6.99,2.25,4.25.43-.52.7-1.37-.01-2.53-.31-.56,1.55-1.28,2.7-.72.39.19.72.11,1,.67-2.45,1.42-3.83,3.63-5.85,6.1l-80.53,98.36-146.05,178.83-89.91,109.09h67s93.02-115.79,93.02-115.79l26.81-33.38,64.74-81.09,31.68-39.6,31.18-38.74,32.01-40.01,34.93-43.72-56.12.35c-.14-.71-1.69-.18-2.25-1.91h59.03c-.22,1.81-.4,3.4.65,4.95,1.51-2.41,2.09-3.5,4.59-6.07l-324.19-.07,314-.97c3.89-1.47,8.08-.34,12.54.11l-94.26,117.33-204.46,255.26-21.82,26.92-74.87.25-.24-25.87Z"/>
      <path class="cls-3" d="M559.12.35l-10.65,1.58c-1.67.25-2.65.67-2.99,2.08l-47.58.06c-1.96-2.72-5.21-.09-7.4-.09l-321.87-.08L54.65,141.98,6.35,199.7c-2.4-4.47-2.4,4.13-6.35,1.41l76.53-92.1L153.93,15.51c4.13-5.27,8.2-9.65,12.05-15.51l393.14.35Z"/>
      <path class="cls-3" d="M238.37,379.83l.02,14.09c-1.86,1.6-.6,4.33-1.06,6.02-.39.14-.73-.06-.84-.44l.03-20.51,1.85.83Z"/>
      <path class="cls-1" d="M487.87,404.61l1.69-.12c.09,1.19-.81,1.76-1.19,2.49-2.4,4.54-6.27,7.8-9.75,12.07l-35.07,42.99-33.69,41.27-32.36,39.67-39.72,48.38-114.97,140.79-29.84,36.24-20.26,23.92-.13-17.63-.49-177.86-166.52-.13.02-191.67,95.16-.67,60.71-.08,40.2.45,264.59.14,21.63-.26Z"/>
      <path class="cls-1" d="M490.5,3.98l.04,184.79c0,2.74.97,4.66.04,7.9l-315.7-.11-10.89-.08-.57,194.97L6.34,202.43c-1.25-1.51-1.09-1.73.01-2.73l48.3-57.72L168.62,3.9l321.87.08Z"/>
      <path class="cls-1" d="M499.75,405.01l56.12-.35-34.93,43.72-32.01,40.01-31.18,38.74-31.68,39.6-64.74,81.09-26.81,33.38-93.02,115.8h-67s89.91-109.1,89.91-109.1l146.05-178.83,80.53-98.36c2.02-2.47,3.4-4.69,5.85-6.1,1.02.53,1.9.4,2.91.4Z"/>
      <polygon class="cls-1" points="234.48 400.63 167.79 400.71 168.2 200.76 234.45 200.81 234.48 400.63"/>
      <path class="cls-1" d="M497.9,4.07l47.58-.06,11.49.56.17,191.85-61.75.53c-.51-2.71-.91-5.27.03-8.05l.13-55.05c-1.14-1.09-1.92-2.99,0-4.25l-.29-111.09c0-3.15-1.75-6.48-1.63-9.58,1.53-.02,1.26-2.13,1.16-2.94.1-.76.24-1.24.63-1.59.63-.56,1.79-.31,2.49-.33Z"/>
      <path class="cls-2" d="M494.78,5.99c.1.82.37,2.92-1.16,2.94l-.17,185.54c0,.28-.53.7-.93.63l-.03-188.81c.33-.42,1.97-.44,2.29-.31Z"/>
      <path class="cls-4" d="M488.36,406.98c.39-.73,1.29-1.3,1.19-2.49,1.44-.75,1.44.82,1.07,1.1-.89.69-1.61,1.49-2.26,1.39Z"/>
    </g>
  </g>
</svg>